<svg width="570" height="216" viewBox="0 0 570 216" fill="none" xmlns="http://www.w3.org/2000/svg">
<path d="M109.5 213C107.5 213 105.8 212.3 104.4 210.9C103 209.5 102.3 207.8 102.3 205.8V167.4H7.2C5.2 167.4 3.5 166.7 2.1 165.3C0.7 163.9 3.57628e-07 162.2 3.57628e-07 160.2V139.8C3.57628e-07 136.6 1.1 133.6 3.3 130.8L91.8 8.09999C92.8 6.49999 94.3 5.29999 96.3 4.49998C98.3 3.49999 100.5 2.99999 102.9 2.99999H135.6C137.8 2.99999 139.5 3.69999 140.7 5.09999C142.1 6.29999 142.8 7.99999 142.8 10.2V132H169.5C171.7 132 173.5 132.7 174.9 134.1C176.3 135.3 177 137 177 139.2V160.2C177 162.2 176.3 163.9 174.9 165.3C173.5 166.7 171.8 167.4 169.8 167.4H142.8V205.8C142.8 207.8 142.1 209.5 140.7 210.9C139.5 212.3 137.8 213 135.6 213H109.5ZM103.2 133.2V46.5L41.7 133.2H103.2ZM285.103 216C258.503 216 238.603 208.6 225.403 193.8C212.403 179 205.303 159.6 204.103 135.6C203.903 130.2 203.803 121 203.803 108C203.803 94.8 203.903 85.4 204.103 79.8C205.103 56.2 212.303 37 225.703 22.2C239.103 7.39999 258.903 -1.14441e-05 285.103 -1.14441e-05C311.503 -1.14441e-05 331.403 7.39999 344.803 22.2C358.203 37 365.303 56.2 366.103 79.8C366.503 85.4 366.703 94.8 366.703 108C366.703 121 366.503 130.2 366.103 135.6C365.103 159.6 358.003 179 344.803 193.8C331.803 208.6 311.903 216 285.103 216ZM285.103 181.5C297.703 181.5 307.103 177.4 313.303 169.2C319.503 160.8 322.803 149.1 323.203 134.1C323.603 122.5 323.803 113.7 323.803 107.7C323.803 101.1 323.603 92.4 323.203 81.6C322.803 66.8 319.503 55.2 313.303 46.8C307.103 38.4 297.703 34.2 285.103 34.2C272.703 34.2 263.303 38.4 256.903 46.8C250.703 55.2 247.403 66.8 247.003 81.6C246.803 87 246.703 95.7 246.703 107.7C246.703 119.5 246.803 128.3 247.003 134.1C247.403 149.1 250.703 160.8 256.903 169.2C263.303 177.4 272.703 181.5 285.103 181.5ZM502.371 213C500.371 213 498.671 212.3 497.271 210.9C495.871 209.5 495.171 207.8 495.171 205.8V167.4H400.071C398.071 167.4 396.371 166.7 394.971 165.3C393.571 163.9 392.871 162.2 392.871 160.2V139.8C392.871 136.6 393.971 133.6 396.171 130.8L484.671 8.09999C485.671 6.49999 487.171 5.29999 489.171 4.49998C491.171 3.49999 493.371 2.99999 495.771 2.99999H528.471C530.671 2.99999 532.371 3.69999 533.571 5.09999C534.971 6.29999 535.671 7.99999 535.671 10.2V132H562.371C564.571 132 566.371 132.7 567.771 134.1C569.171 135.3 569.871 137 569.871 139.2V160.2C569.871 162.2 569.171 163.9 567.771 165.3C566.371 166.7 564.671 167.4 562.671 167.4H535.671V205.8C535.671 207.8 534.971 209.5 533.571 210.9C532.371 212.3 530.671 213 528.471 213H502.371ZM496.071 133.2V46.5L434.571 133.2H496.071Z" fill="white"/>
</svg>
