<svg width="1450" height="1080" viewBox="0 0 1450 1080" fill="none" xmlns="http://www.w3.org/2000/svg">
<path fill-rule="evenodd" clip-rule="evenodd" d="M682.864 -231.919C841.399 -210.125 870.908 16.9713 996.549 116.176C1113.77 208.734 1304.58 193.399 1382.77 320.72C1465.63 455.672 1467.49 637.558 1406.45 783.706C1347.3 925.329 1190.62 986.787 1066.77 1077.3C942.554 1168.09 836.351 1322.45 682.864 1312.55C529.655 1302.65 453.291 1125.85 333.32 1029.95C221.093 940.248 28.1775 910.972 3.32669 769.38C-22.1192 624.396 168.374 535.499 222.518 398.636C271.04 275.988 221.887 126.878 299.643 20.3723C392.116 -106.293 527.595 -253.264 682.864 -231.919Z" stroke="#492258"/>
</svg>
