<svg width="957" height="1022" viewBox="0 0 957 1022" fill="none" xmlns="http://www.w3.org/2000/svg">
<path fill-rule="evenodd" clip-rule="evenodd" d="M450.71 2.37208C555.268 16.7417 574.731 166.476 657.595 231.886C734.906 292.913 860.753 282.801 912.317 366.75C966.971 455.729 968.195 575.653 927.937 672.015C888.926 765.392 785.592 805.914 703.91 865.595C621.983 925.455 551.94 1027.23 450.71 1020.7C349.664 1014.18 299.3 897.603 220.175 834.375C146.158 775.229 18.9244 755.927 2.53452 662.569C-14.2478 566.975 111.388 508.362 147.098 418.123C179.099 337.256 146.682 238.942 197.964 168.718C258.953 85.2025 348.305 -11.7015 450.71 2.37208Z" stroke="#492258"/>
</svg>
