<svg width="1047" height="1080" viewBox="0 0 1047 1080" fill="none" xmlns="http://www.w3.org/2000/svg">
<path fill-rule="evenodd" clip-rule="evenodd" d="M493.091 -16.4988C607.503 -0.776719 628.8 163.05 719.473 234.616C804.07 301.387 941.777 290.324 998.2 382.173C1058 479.527 1059.34 610.738 1015.29 716.17C972.605 818.335 859.533 862.671 770.153 927.969C680.505 993.462 603.861 1104.82 493.091 1097.67C382.522 1090.54 327.412 962.989 240.83 893.811C159.838 829.098 20.6136 807.979 2.67913 705.834C-15.6848 601.244 121.791 537.114 160.866 438.381C195.883 349.903 160.411 242.336 216.526 165.503C283.263 74.1274 381.035 -31.8969 493.091 -16.4988Z" stroke="#492258"/>
</svg>
