<svg width="1178" height="1080" viewBox="0 0 1178 1080" fill="none" xmlns="http://www.w3.org/2000/svg">
<path fill-rule="evenodd" clip-rule="evenodd" d="M554.779 -86.3105C683.534 -68.6161 707.5 115.762 809.539 196.306C904.742 271.453 1059.71 259.002 1123.21 362.374C1190.51 471.941 1192.02 619.612 1142.44 738.27C1094.4 853.252 967.158 903.149 866.574 976.639C765.687 1050.35 679.434 1175.68 554.779 1167.63C430.35 1159.6 368.33 1016.05 270.895 938.195C179.749 865.364 23.0723 841.596 2.88963 726.638C-17.7763 608.927 136.933 536.751 180.907 425.633C220.314 326.056 180.394 204.995 243.544 118.523C318.647 15.6846 428.676 -103.64 554.779 -86.3105Z" stroke="#492258"/>
</svg>
