<svg width="662" height="707" viewBox="0 0 662 707" fill="none" xmlns="http://www.w3.org/2000/svg">
<path fill-rule="evenodd" clip-rule="evenodd" d="M311.668 0.950224C384.131 10.9018 397.62 114.599 455.048 159.898C508.628 202.162 595.845 195.16 631.581 253.298C669.458 314.919 670.307 397.972 642.406 464.707C615.37 529.375 543.756 557.438 487.147 598.769C430.368 640.225 381.824 710.711 311.668 706.187C241.639 701.67 206.734 620.936 151.898 577.148C100.601 536.187 12.4223 522.819 1.06349 458.165C-10.5674 391.962 76.5036 351.37 101.252 288.875C123.43 232.872 100.963 164.785 136.504 116.152C178.772 58.3138 240.697 -8.79634 311.668 0.950224Z" fill="url(#paint0_linear_52_1854)"/>
<defs>
<linearGradient id="paint0_linear_52_1854" x1="-3.6984e-06" y1="353.197" x2="661.855" y2="353.197" gradientUnits="userSpaceOnUse">
<stop stop-color="#EE0979"/>
<stop offset="1" stop-color="#FF6A00"/>
</linearGradient>
</defs>
</svg>
