<svg width="830" height="886" viewBox="0 0 830 886" fill="none" xmlns="http://www.w3.org/2000/svg">
<path fill-rule="evenodd" clip-rule="evenodd" d="M390.905 2.18913C481.559 14.6428 498.434 144.412 570.278 201.101C637.308 253.991 746.419 245.228 791.126 317.983C838.512 395.098 839.573 499.033 804.669 582.547C770.846 663.473 681.254 698.592 610.434 750.316C539.402 802.194 478.673 890.402 390.905 884.74C303.297 879.088 259.631 778.056 191.028 723.259C126.854 671.999 16.5407 655.27 2.33045 574.36C-12.2201 491.512 96.7082 440.714 127.669 362.506C155.415 292.421 127.308 207.216 171.771 146.356C224.649 73.9755 302.119 -10.008 390.905 2.18913Z" stroke="#492258"/>
</svg>
