<svg width="95" height="782" viewBox="0 0 95 782" fill="none" xmlns="http://www.w3.org/2000/svg">
<g filter="url(#filter0_d_59_1643)">
<path fill-rule="evenodd" clip-rule="evenodd" d="M182.104 577.901C137.839 530.612 112.411 473.081 89.4729 412.498C61.9725 339.865 14.8784 266.412 35.8468 191.611C57.7004 113.651 123.789 49.0011 199.448 20.1768C270.749 -6.98704 346.48 30.1177 421.346 44.7453C488.418 57.8499 565.926 51.7447 613.259 101.028C659.858 149.547 653.525 225.44 659.277 292.479C664.305 351.074 653.592 405.866 644.399 463.959C631.162 547.605 660.475 654.415 593.745 706.576C528.477 757.594 430.801 717.415 351.76 692.708C284.947 671.823 229.937 629.003 182.104 577.901Z" fill="url(#paint0_linear_59_1643)"/>
</g>
<defs>
<filter id="filter0_d_59_1643" x="0.621582" y="0.49527" width="689.941" height="780.709" filterUnits="userSpaceOnUse" color-interpolation-filters="sRGB">
<feFlood flood-opacity="0" result="BackgroundImageFix"/>
<feColorMatrix in="SourceAlpha" type="matrix" values="0 0 0 0 0 0 0 0 0 0 0 0 0 0 0 0 0 0 127 0" result="hardAlpha"/>
<feOffset dy="20"/>
<feGaussianBlur stdDeviation="15"/>
<feComposite in2="hardAlpha" operator="out"/>
<feColorMatrix type="matrix" values="0 0 0 0 0.701961 0 0 0 0 0.133333 0 0 0 0 0.121569 0 0 0 0.2 0"/>
<feBlend mode="normal" in2="BackgroundImageFix" result="effect1_dropShadow_59_1643"/>
<feBlend mode="normal" in="SourceGraphic" in2="effect1_dropShadow_59_1643" result="shape"/>
</filter>
<linearGradient id="paint0_linear_59_1643" x1="688.697" y1="603.815" x2="106.385" y2="77.3302" gradientUnits="userSpaceOnUse">
<stop stop-color="#EE0979"/>
<stop offset="1" stop-color="#FF6A00"/>
</linearGradient>
</defs>
</svg>
