<svg width="30" height="30" viewBox="0 0 30 30" fill="none" xmlns="http://www.w3.org/2000/svg">
<g clip-path="url(#clip0_52_983)">
<path d="M29.0019 6.87261C28.403 6.24524 27.576 5.87452 26.635 5.87452H21.9011V5.81748C21.9011 5.10455 21.616 4.42014 21.1312 3.96387C20.6464 3.47908 19.9905 3.19391 19.2776 3.19391H10.7224C9.98099 3.19391 9.3251 3.47908 8.8403 3.96387C8.35551 4.44866 8.07034 5.10455 8.07034 5.81748V5.87452H3.36502C2.42395 5.87452 1.59696 6.24524 0.998099 6.87261C0.39924 7.47147 0 8.32699 0 9.23953V23.441C0 24.3821 0.370722 25.2091 0.998099 25.808C1.59696 26.4068 2.45247 26.8061 3.36502 26.8061H26.635C27.576 26.8061 28.403 26.4353 29.0019 25.808C29.6008 25.2091 30 24.3536 30 23.441V9.23953C30 8.29847 29.6293 7.47147 29.0019 6.87261ZM28.5171 23.441H28.4886C28.4886 23.9544 28.289 24.4106 27.9468 24.7528C27.6046 25.095 27.1483 25.2947 26.635 25.2947H3.36502C2.85171 25.2947 2.39544 25.095 2.05323 24.7528C1.71103 24.4106 1.51141 23.9544 1.51141 23.441V9.23953C1.51141 8.72623 1.71103 8.26995 2.05323 7.92775C2.39544 7.58554 2.85171 7.38592 3.36502 7.38592H8.86882C9.29658 7.38592 9.63878 7.04372 9.63878 6.61596V5.78896C9.63878 5.47528 9.75285 5.19011 9.95247 4.99049C10.1521 4.79087 10.4373 4.6768 10.751 4.6768H19.2776C19.5913 4.6768 19.8764 4.79087 20.076 4.99049C20.2757 5.19011 20.3897 5.47528 20.3897 5.78896V6.61596C20.3897 7.04372 20.7319 7.38592 21.1597 7.38592H26.6635C27.1768 7.38592 27.6331 7.58554 27.9753 7.92775C28.3175 8.26995 28.5171 8.72623 28.5171 9.23953V23.441Z" fill="#925FA4"/>
<path d="M14.9996 9.32507C13.0604 9.32507 11.2924 10.1236 10.0376 11.3783C8.75434 12.6616 7.98438 14.4011 7.98438 16.3403C7.98438 18.2794 8.78285 20.0475 10.0376 21.3023C11.3209 22.5855 13.0604 23.3555 14.9996 23.3555C16.9388 23.3555 18.7068 22.557 19.9616 21.3023C21.2448 20.019 22.0148 18.2794 22.0148 16.3403C22.0148 14.4011 21.2163 12.6331 19.9616 11.3783C18.7068 10.1236 16.9388 9.32507 14.9996 9.32507ZM18.8779 20.2471C17.8798 21.2167 16.511 21.8441 14.9996 21.8441C13.4882 21.8441 12.1194 21.2167 11.1213 20.2471C10.1232 19.249 9.5243 17.8802 9.5243 16.3688C9.5243 14.8574 10.1517 13.4886 11.1213 12.4905C12.1194 11.4924 13.4882 10.8935 14.9996 10.8935C16.511 10.8935 17.8798 11.5209 18.8779 12.4905C19.876 13.4886 20.4749 14.8574 20.4749 16.3688C20.5034 17.8802 19.876 19.249 18.8779 20.2471Z" fill="#925FA4"/>
<path d="M25.1512 12.0912C25.923 12.0912 26.5486 11.4656 26.5486 10.6939C26.5486 9.92218 25.923 9.29657 25.1512 9.29657C24.3795 9.29657 23.7539 9.92218 23.7539 10.6939C23.7539 11.4656 24.3795 12.0912 25.1512 12.0912Z" fill="#925FA4"/>
</g>
<defs>
<clipPath id="clip0_52_983">
<rect width="30" height="30" fill="white"/>
</clipPath>
</defs>
</svg>
