<svg width="20" height="20" viewBox="0 0 20 20" fill="none" xmlns="http://www.w3.org/2000/svg">
<g clip-path="url(#clip0_52_1514)">
<path d="M14.7665 0.807812H5.23211C2.4493 0.807812 0.185547 3.07156 0.185547 5.85437V14.1456C0.185547 16.9284 2.4493 19.1922 5.23211 19.1922H14.7665C17.5493 19.1922 19.813 16.9284 19.813 14.1456V5.85437C19.813 3.07156 17.5493 0.807812 14.7665 0.807812ZM17.938 14.1456C17.938 15.8947 16.5152 17.3172 14.7665 17.3172H5.23211C3.48336 17.3172 2.06055 15.8944 2.06055 14.1456V5.85437C2.06055 4.10562 3.48336 2.68281 5.23211 2.68281H14.7665C16.5155 2.68281 17.938 4.10562 17.938 5.85437V14.1456Z" fill="#727272"/>
<path d="M13.9518 5.99C13.583 5.62625 12.9896 5.63093 12.6262 5.99968L10.0002 8.66437L7.3746 5.99968C7.01085 5.63062 6.41741 5.62625 6.04897 5.99C5.68022 6.35343 5.67585 6.94687 6.03928 7.31562L8.68428 10L6.03928 12.6844C5.67585 13.0531 5.68022 13.6466 6.04897 14.01C6.23147 14.19 6.46928 14.2797 6.70678 14.2797C6.94897 14.2797 7.19116 14.1862 7.3746 14L10.0002 11.3356L12.6258 14.0003C12.8093 14.1866 13.0512 14.28 13.2937 14.28C13.5315 14.28 13.769 14.1903 13.9515 14.0103C14.3205 13.6469 14.3246 13.0531 13.9612 12.6847L11.3165 10L13.9615 7.31562C14.3249 6.94687 14.3205 6.35343 13.9518 5.99Z" fill="#727272"/>
</g>
<defs>
<clipPath id="clip0_52_1514">
<rect width="20" height="20" fill="white"/>
</clipPath>
</defs>
</svg>
