<svg width="18" height="20" viewBox="0 0 18 20" fill="none" xmlns="http://www.w3.org/2000/svg">
<path d="M16.8162 14.0942C15.5562 13.0292 14.8337 11.4725 14.8337 9.82333V7.5C14.8337 4.5675 12.6553 2.14 9.83366 1.73333V0.833333C9.83366 0.3725 9.46033 0 9.00033 0C8.54033 0 8.16699 0.3725 8.16699 0.833333V1.73333C5.34449 2.14 3.16699 4.5675 3.16699 7.5V9.82333C3.16699 11.4725 2.44449 13.0292 1.17699 14.1008C0.852826 14.3783 0.666992 14.7817 0.666992 15.2083C0.666992 16.0125 1.32116 16.6667 2.12533 16.6667H15.8753C16.6795 16.6667 17.3337 16.0125 17.3337 15.2083C17.3337 14.7817 17.1478 14.3783 16.8162 14.0942Z" fill="#925FA4"/>
<path d="M9.00014 20C10.5093 20 11.7718 18.9242 12.0618 17.5H5.93848C6.22848 18.9242 7.49098 20 9.00014 20Z" fill="#925FA4"/>
</svg>
