<svg width="18" height="17" viewBox="0 0 18 17" fill="none" xmlns="http://www.w3.org/2000/svg">
<path d="M17.75 13V14.5625C17.75 15.4244 17.0487 16.125 16.1875 16.125H2.75C1.37125 16.125 0.25 15.0037 0.25 13.625C0.25 13.625 0.25 3.00938 0.25 3C0.25 1.62125 1.37125 0.5 2.75 0.5H14.3125C14.8306 0.5 15.25 0.92 15.25 1.4375C15.25 1.955 14.8306 2.375 14.3125 2.375H2.75C2.40563 2.375 2.125 2.655 2.125 3C2.125 3.345 2.40563 3.625 2.75 3.625H16.1875C17.0487 3.625 17.75 4.32562 17.75 5.1875V6.75H14.625C12.9019 6.75 11.5 8.15188 11.5 9.875C11.5 11.5981 12.9019 13 14.625 13H17.75Z" fill="#42204E"/>
</svg>
